#!OML:ASF H:\LiuWeirdWalks\Patient Classification 1\Patient 1\Session 1\male.ASF
:FULLY-SPECIFIED
:DEGREES
450
root 0.989458 18.0639 0.540062 -2.24687 3.29771 -8.61256
lowerback 5.8968 -0.367446 4.85771
upperback -1.45268 0.0961944 4.45915
thorax -4.83127 -0.0232546 1.90207
lowerneck -19.025 0.561813 4.20452
upperneck 27.3672 1.04593 -5.28513
head 12.2404 0.207636 -2.55342
rclavicle -3.05631e-015 5.92378e-014
rhumerus -41.5847 -8.33864 -70.5198
rradius 34.5927
rwrist -8.37689
rhand -15.6705 -3.09521
rfingers 7.12502
rthumb 10.518 -32.8121
lclavicle -3.05631e-015 5.92378e-014
lhumerus -42.8398 1.0783 81.1715
lradius 38.0842
lwrist 6.98395
lhand -10.9288 -0.745541
lfingers 7.12502
lthumb 15.0891 28.6845
rfemur 1.17069 -2.17544 34.1338
rtibia 19.1395
rfoot -10.5856 -14.9528
rtoes -1.63373
lfemur -29.8954 4.61234 -9.85654
ltibia 61.4562
lfoot -8.73489 4.94947
ltoes -21.1399
451
root 0.992017 18.0664 0.661501 -2.13872 3.258 -8.69585
lowerback 5.90956 -0.329644 4.96231
upperback -1.46449 0.15728 4.47216
thorax -4.85095 0.00384959 1.8515
lowerneck -19.0637 0.547337 4.18447
upperneck 27.274 1.0237 -5.27362
head 12.2098 0.196507 -2.54696
rclavicle 6.01324e-015 -3.4191e-014
rhumerus -41.5943 -8.13033 -70.6394
rradius 34.8507
rwrist -8.49381
rhand -15.6854 -3.0746
rfingers 7.12502
rthumb 10.5037 -32.7922
lclavicle 6.01324e-015 -3.4191e-014
lhumerus -42.8253 1.04982 81.2118
lradius 38.1907
lwrist 6.9695
lhand -10.8931 -0.737975
lfingers 7.12502
lthumb 15.1235 28.6895
rfemur 1.81118 -2.23321 34.2182
rtibia 18.4972
rfoot -10.485 -14.8767
rtoes -1.97545
lfemur -30.3956 4.61294 -9.91279
ltibia 59.7408
lfoot -8.87143 5.10914
ltoes -21.1323
452
root 0.994844 18.0698 0.783082 -2.02168 3.22021 -8.75025
lowerback 5.90319 -0.29052 5.03597
upperback -1.47151 0.215427 4.4772
thorax -4.85451 0.0304805 1.80987
lowerneck -19.0755 0.539795 4.18991
upperneck 27.1337 1.00895 -5.28356
head 12.156 0.188723 -2.55043
rclavicle 1.61513e-015 2.94201e-014
rhumerus -41.5674 -8.00322 -70.7222
rradius 35.03
rwrist -8.54587
rhand -15.6989 -3.03286
rfingers 7.12502
rthumb 10.4906 -32.7511
lclavicle 1.61513e-015 2.94201e-014
lhumerus -42.8019 1.02262 81.248
lradius 38.2968
lwrist 6.98092
lhand -10.8643 -0.70183
lfingers 7.12502
lthumb 15.1513 28.7235
rfemur 2.45953 -2.28247 34.2707
rtibia 17.8228
rfoot -10.3592 -14.8005
rtoes -2.30907
lfemur -30.8223 4.60574 -9.99546
ltibia 57.9026
lfoot -8.96418 5.26267
ltoes -21.0965
453
root 0.998085 18.0731 0.904988 -1.90013 3.1762 -8.78766
lowerback 5.8899 -0.248415 5.09047
upperback -1.47685 0.275135 4.47795
thorax -4.85219 0.0584526 1.77421
lowerneck -19.0988 0.520171 4.16003
upperneck 27.0156 0.979755 -5.26367
head 12.1122 0.174661 -2.53945
rclavicle 2.68359e-015 4.37326e-014
rhumerus -41.5332 -7.90836 -70.7881
rradius 35.1781
rwrist -8.58155
rhand -15.7067 -3.019
rfingers 7.12502
rthumb 10.4831 -32.7376
lclavicle 2.68359e-015 4.37326e-014
lhumerus -42.7685 1.01117 81.2775
lradius 38.3918
lwrist 7.00568
lhand -10.8374 -0.644818
lfingers 7.12502
lthumb 15.1771 28.7786
rfemur 3.10213 -2.31455 34.3047
rtibia 17.1544
rfoot -10.231 -14.733
rtoes -2.64084
lfemur -31.1759 4.59554 -10.0894
ltibia 55.9658
lfoot -9.0282 5.39909
ltoes -21.0487
454
root 1.00163 18.076 1.02717 -1.7807 3.13926 -8.83076
lowerback 5.86678 -0.210239 5.14892
upperback -1.47532 0.32868 4.48105
thorax -4.83702 0.0835268 1.73926
lowerneck -19.1398 0.505674 4.13398
upperneck 26.9172 0.955538 -5.23981
head 12.0802 0.163619 -2.52752
rclavicle 2.99419e-015 -1.47101e-014
rhumerus -41.4806 -7.84527 -70.8369
rradius 35.2836
rwrist -8.59581
rhand -15.7052 -2.99765
rfingers 7.12502
rthumb 10.4846 -32.7162
lclavicle 2.99419e-015 -1.47101e-014
lhumerus -42.7354 1.00524 81.3043
lradius 38.4986
lwrist 7.04558
lhand -10.8245 -0.551207
lfingers 7.12502
lthumb 15.1896 28.8713
rfemur 3.7565 -2.34049 34.3454
rtibia 16.463
rfoot -10.0745 -14.6745
rtoes -2.98889
lfemur -31.4579 4.5727 -10.1697
ltibia 53.9369
lfoot -9.06098 5.51859
ltoes -21.0151
455
root 1.00585 18.0748 1.14966 -1.65978 3.10739 -8.87109
lowerback 5.84653 -0.176746 5.20452
upperback -1.48004 0.376365 4.48334
thorax -4.82999 0.105613 1.70581
lowerneck -19.1992 0.497902 4.11218
upperneck 26.8274 0.939745 -5.21756
head 12.0559 0.156399 -2.51602
rclavicle 1.1865e-014 -1.35174e-014
rhumerus -41.4408 -7.7757 -70.8828
rradius 35.3757
rwrist -8.61644
rhand -15.7026 -3.01604
rfingers 7.12502
rthumb 10.487 -32.7345
lclavicle 1.1865e-014 -1.35174e-014
lhumerus -42.7215 1.00251 81.3259
lradius 38.6085
lwrist 7.07927
lhand -10.8396 -0.479659
lfingers 7.12502
lthumb 15.175 28.9439
rfemur 4.41526 -2.36126 34.383
rtibia 15.7561
rfoot -9.8899 -14.6211
rtoes -3.35817
lfemur -31.6854 4.5291 -10.2467
ltibia 51.8427
lfoot -9.06304 5.62737
ltoes -21.0482
456
root 1.01037 18.0762 1.27309 -1.54234 3.08016 -8.91344
lowerback 5.81828 -0.148488 5.26274
upperback -1.48027 0.416182 4.48492
thorax -4.81367 0.12389 1.67085
lowerneck -19.2741 0.492108 4.08768
upperneck 26.7669 0.923965 -5.18151
head 12.0462 0.150639 -2.49974
rclavicle -3.90115e-015 2.42517e-014
rhumerus -41.3934 -7.72592 -70.9202
rradius 35.4326
rwrist -8.61908
rhand -15.6866 -2.99516
rfingers 7.12502
rthumb 10.5025 -32.7128
lclavicle -3.90115e-015 2.42517e-014
lhumerus -42.7094 1.01139 81.3364
lradius 38.7032
lwrist 7.08532
lhand -10.8748 -0.427245
lfingers 7.12502
lthumb 15.1411 28.9989
rfemur 5.08724 -2.38413 34.4207
rtibia 15.0274
rfoot -9.6736 -14.5668
rtoes -3.77262
lfemur -31.8284 4.46791 -10.3135
ltibia 49.6724
lfoot -9.07967 5.71006
ltoes -21.1698
457
root 1.01576 18.0772 1.39739 -1.42136 3.04868 -8.95293
lowerback 5.78354 -0.119205 5.32188
upperback -1.4891 0.457355 4.48499
thorax -4.80257 0.142645 1.6338
lowerneck -19.3083 0.500657 4.11511
upperneck 26.6966 0.924599 -5.18488
head 12.0257 0.152817 -2.50412
rclavicle 1.73937e-015 4.29375e-014
rhumerus -41.3662 -7.67965 -70.9492
rradius 35.4758
rwrist -8.63898
rhand -15.6839 -3.01495
rfingers 7.12502
rthumb 10.5051 -32.7325
lclavicle 1.73937e-015 4.29375e-014
lhumerus -42.7215 1.00844 81.3473
lradius 38.7963
lwrist 7.08651
lhand -10.917 -0.395263
lfingers 7.12502
lthumb 15.1004 29.0339
rfemur 5.76259 -2.4065 34.4501
rtibia 14.2896
rfoot -9.44103 -14.5021
rtoes -4.21727
lfemur -31.9063 4.38438 -10.3756
ltibia 47.4489
lfoot -9.10476 5.80615
ltoes -21.3167
458
root 1.02195 18.0779 1.52272 -1.29591 3.03289 -8.98087
lowerback 5.73619 -0.0951776 5.37595
upperback -1.50489 0.490194 4.47932
thorax -4.79157 0.157273 1.59447
lowerneck -19.303 0.513791 4.16869
upperneck 26.6136 0.930251 -5.20858
head 11.9928 0.157631 -2.51924
rclavicle -2.14936e-015 1.98785e-014
rhumerus -41.3448 -7.65909 -70.9638
rradius 35.4858
rwrist -8.66207
rhand -15.6969 -3.06082
rfingers 7.12502
rthumb 10.4925 -32.779
lclavicle -2.14936e-015 1.98785e-014
lhumerus -42.7479 1.00324 81.3503
lradius 38.8734
lwrist 7.06166
lhand -10.9622 -0.413975
lfingers 7.12502
lthumb 15.0569 29.0185
rfemur 6.46339 -2.44283 34.4627
rtibia 13.495
rfoot -9.17334 -14.4264
rtoes -4.68373
lfemur -31.9207 4.25935 -10.442
ltibia 45.1731
lfoot -9.15333 5.9271
ltoes -21.5009
459
root 1.02922 18.0786 1.64927 -1.16439 3.02163 -8.99569
lowerback 5.67686 -0.0736471 5.42276
upperback -1.52909 0.518368 4.46806
thorax -4.78253 0.169606 1.55388
lowerneck -19.264 0.532808 4.2393
upperneck 26.5082 0.943878 -5.24784
head 11.9451 0.166004 -2.54104
rclavicle -2.11209e-016 -1.59028e-015
rhumerus -41.3491 -7.64505 -70.9719
rradius 35.4908
rwrist -8.69307
rhand -15.7155 -3.12049
rfingers 7.12502
rthumb 10.4746 -32.8395
lclavicle -2.11209e-016 -1.59028e-015
lhumerus -42.7878 0.988786 81.35
lradius 38.9445
lwrist 7.04558
lhand -10.9931 -0.410023
lfingers 7.12502
lthumb 15.0271 29.0247
rfemur 7.17354 -2.48661 34.4546
rtibia 12.6779
rfoot -8.89155 -14.3354
rtoes -5.17724
lfemur -31.8758 4.08669 -10.5081
ltibia 42.8678
lfoot -9.18185 5.98891
ltoes -21.3902
460
root 1.0376 18.0793 1.77729 -1.02306 3.02419 -9.00825
lowerback 5.58929 -0.0571533 5.47527
upperback -1.55693 0.537856 4.45534
thorax -4.76127 0.177612 1.50943
lowerneck -19.2137 0.5515 4.30954
upperneck 26.3911 0.957863 -5.28926
head 11.8906 0.174282 -2.56312
rclavicle -1.95057e-015 -4.37326e-015
rhumerus -41.3467 -7.66755 -70.962
rradius 35.4588
rwrist -8.71259
rhand -15.7438 -3.22708
rfingers 7.12502
rthumb 10.4473 -32.9475
lclavicle -1.95057e-015 -4.37326e-015
lhumerus -42.8285 0.979166 81.3457
lradius 39.0002
lwrist 7.02464
lhand -11.0047 -0.408825
lfingers 7.12502
lthumb 15.016 29.0267
rfemur 7.8938 -2.53816 34.4382
rtibia 11.8257
rfoot -8.59595 -14.2326
rtoes -5.66045
lfemur -31.7849 3.85315 -10.5584
ltibia 40.5544
lfoot -9.22189 6.14702
ltoes -21.1933
461
root 1.04733 18.0805 1.90683 -0.876149 3.01847 -9.00424
lowerback 5.48443 -0.0372272 5.51808
upperback -1.58806 0.559563 4.43767
thorax -4.73352 0.186991 1.46502
lowerneck -19.168 0.553047 4.33111
upperneck 26.3035 0.952592 -5.29191
head 11.8472 0.174055 -2.566
rclavicle -8.82728e-015 -3.18055e-015
rhumerus -41.3613 -7.70854 -70.9353
rradius 35.4119
rwrist -8.71406
rhand -15.7685 -3.31676
rfingers 7.12502
rthumb 10.4235 -33.0384
lclavicle -8.82728e-015 -3.18055e-015
lhumerus -42.8689 0.966792 81.3436
lradius 39.0431
lwrist 6.98975
lhand -10.9997 -0.399055
lfingers 7.12502
lthumb 15.0208 29.0361
rfemur 8.63894 -2.57455 34.397
rtibia 10.9264
rfoot -8.27156 -14.1115
rtoes -6.14531
lfemur -31.6402 3.54611 -10.596
ltibia 38.2566
lfoot -9.27453 6.41086
ltoes -20.9003
462
root 1.05786 18.0814 2.03766 -0.728564 3.00198 -9.00866
lowerback 5.36881 -0.0152924 5.56686
upperback -1.61658 0.583416 4.4261
thorax -4.69688 0.197535 1.42348
lowerneck -19.1254 0.556696 4.35309
upperneck 26.2428 0.951235 -5.29526
head 11.8151 0.175574 -2.56933
rclavicle -1.94436e-015 3.10104e-014
rhumerus -41.3825 -7.76882 -70.8901
rradius 35.3505
rwrist -8.68092
rhand -15.7717 -3.35391
rfingers 7.12502
rthumb 10.4204 -33.0757
lclavicle -1.94436e-015 3.10104e-014
lhumerus -42.9104 0.971749 81.3404
lradius 39.0836
lwrist 6.95901
lhand -10.9746 -0.383896
lfingers 7.12502
lthumb 15.045 29.0494
rfemur 9.41347 -2.47842 34.3814
rtibia 9.9755
rfoot -7.88352 -14.0824
rtoes -6.63177
lfemur -31.4551 3.16037 -10.5826
ltibia 36.0091
lfoot -9.36 6.81977
ltoes -20.5821
463
root 1.06975 18.0824 2.16989 -0.579524 2.97032 -9.00291
lowerback 5.24158 0.0107972 5.61166
upperback -1.64518 0.611305 4.41328
thorax -4.6536 0.210291 1.38255
lowerneck -19.0989 0.546414 4.32525
upperneck 26.2176 0.937069 -5.26565
head 11.7989 0.170505 -2.55473
rclavicle 1.01256e-015 -2.70347e-014
rhumerus -41.4217 -7.82673 -70.8333
rradius 35.2952
rwrist -8.63992
rhand -15.7614 -3.40312
rfingers 7.12502
rthumb 10.4303 -33.1244
lclavicle 1.01256e-015 -2.70347e-014
lhumerus -42.953 0.992549 81.3358
lradius 39.1068
lwrist 6.92222
lhand -10.9475 -0.392131
lfingers 7.12502
lthumb 15.071 29.0393
rfemur 10.213 -2.36532 34.3494
rtibia 8.98462
rfoot -7.45648 -14.0247
rtoes -7.12372
lfemur -31.2344 2.67609 -10.5337
ltibia 33.8478
lfoot -9.45617 7.42626
ltoes -20.3242
